# xmcd
#
# Track frame offsets:
#	180
#	11919
#	22044
#	34580
#	47257
#	59274
#	72234
#	89382
#	100841
#	113734
#	125790
#	139539
#	151294
#	162328
#	174396
#	188813
#
# Disc length: 2688 seconds
#
# Revision: 1
# Processed by: cddbd v1.5.2PL0 Copyright (c) Steve Scherf et al.
# Submitted via: audiograbber 1.83.01
#
DISCID=cf0a7e10
DTITLE=Various Artist - Country Legends Vol.2 - CD3
DYEAR=2005
DGENRE=Country
TTITLE0=GENE AUTREY - Blueberry Hill
TTITLE1=GENE AUTREY - El Rancho Grande
TTITLE2=TEX RITTER - I´m Wasting My Tears On You
TTITLE3=JIMMIE WIDENER - I Hear You Knockin´
TTITLE4=HANK PENNY - Get Yourself A Red Head
TTITLE5=THE DELMORE BROTHERS - Barnyard Boogie
TTITLE6=DICKIE JONES - Diggin´
TTITLE7=HANK PENNY - Hillbilly Jump
TTITLE8=BILL HALEY - Cotton Haired Gal 
TTITLE9=LITTLE JIMMY DICKENS - A - Sleeping At The Foot Of The Bed
TTITLE10=DON MC CORD - Can´t Live Without You
TTITLE11=KEITH LOYD - My Western Union Baby
TTITLE12=COTTON THOMPSON - How Long
TTITLE13=HANK WILLIAMS - Cold Cold Heart
TTITLE14=GENE AUTREY  - South Of The Boarder
TTITLE15=HANK WILLIAMS - Jambalaya
EXTD=
EXTT0=
EXTT1=
EXTT2=
EXTT3=
EXTT4=
EXTT5=
EXTT6=
EXTT7=
EXTT8=
EXTT9=
EXTT10=
EXTT11=
EXTT12=
EXTT13=
EXTT14=
EXTT15=
PLAYORDER=
